<svg width="17" height="18" viewBox="0 0 17 18" fill="none" xmlns="http://www.w3.org/2000/svg">
<path d="M8.50055 3.9C10.2805 3.9 10.9405 4.75 11.0005 6H13.2105C13.1405 4.28 12.0905 2.7 10.0005 2.19V0H7.00055V2.16C6.61055 2.24 6.25055 2.37 5.90055 2.52L7.41055 4.03C7.73055 3.95 8.10055 3.9 8.50055 3.9ZM1.47055 0.92L0.0605469 2.33L3.50055 5.77C3.50055 7.85 5.06055 8.99 7.41055 9.68L10.9205 13.19C10.5805 13.68 9.87055 14.1 8.50055 14.1C6.44055 14.1 5.63055 13.18 5.52055 12H3.32055C3.44055 14.19 5.08055 15.42 7.00055 15.83V18H10.0005V15.85C10.9605 15.67 11.8305 15.3 12.4605 14.73L14.6805 16.95L16.0905 15.54L1.47055 0.92Z" fill="#323232"/>
</svg>
